PathFileType	4	(X/Y/Z)	C:\Users\Basilio\Documents\Thesis Gigler\squatting_fais\c3dfiles\076\SLS_front_pre1\markers_experimental.trc
DataRate	CameraRate	NumFrames	NumMarkers	Units	OrigDataRate	OrigDataStartFrame	OrigNumFrames
200.000000	200.000000	4	61	mm	200.000000	0	1548
Frame#	Time	FHD			LBHD			RBHD			C7			T10			CLAV			LSHO			LUUPA			LMUPA			LDUPA			LLEP			LMEP			LRAD			LUL			LRFIN			RSHO			RUPA1			RMUPA			RDUPA			RLEP			RMEP			RRAD			RUL			RUFIN			LASI			RASI			USACR			LSACR			RSACR			LTHI1			LTHI2			LTHI3			LTHI4			LLFC			LMFC			LTIB1			LTIB2			LTIB3			LTIB4			LLMAL			LMMAL			LHEE			LMT1			LMT2			LMT5			RTHI			RTHI2			RTHI3			RTHI4			RLFC			RMFC			RTIB1			RTIB2			RTIB3			RTIB4			RLMAL			RMMAL			RHEE			RMT1			RMT2			RMT5			
		X1	Y1	Z1	X2	Y2	Z2	X3	Y3	Z3	X4	Y4	Z4	X5	Y5	Z5	X6	Y6	Z6	X7	Y7	Z7	X8	Y8	Z8	X9	Y9	Z9	X10	Y10	Z10	X11	Y11	Z11	X12	Y12	Z12	X13	Y13	Z13	X14	Y14	Z14	X15	Y15	Z15	X16	Y16	Z16	X17	Y17	Z17	X18	Y18	Z18	X19	Y19	Z19	X20	Y20	Z20	X21	Y21	Z21	X22	Y22	Z22	X23	Y23	Z23	X24	Y24	Z24	X25	Y25	Z25	X26	Y26	Z26	X27	Y27	Z27	X28	Y28	Z28	X29	Y29	Z29	X30	Y30	Z30	X31	Y31	Z31	X32	Y32	Z32	X33	Y33	Z33	X34	Y34	Z34	X35	Y35	Z35	X36	Y36	Z36	X37	Y37	Z37	X38	Y38	Z38	X39	Y39	Z39	X40	Y40	Z40	X41	Y41	Z41	X42	Y42	Z42	X43	Y43	Z43	X44	Y44	Z44	X45	Y45	Z45	X46	Y46	Z46	X47	Y47	Z47	X48	Y48	Z48	X49	Y49	Z49	X50	Y50	Z50	X51	Y51	Z51	X52	Y52	Z52	X53	Y53	Z53	X54	Y54	Z54	X55	Y55	Z55	X56	Y56	Z56	X57	Y57	Z57	X58	Y58	Z58	X59	Y59	Z59	X60	Y60	Z60	X61	Y61	Z61	

1	0	-275.0093078613282	1643.71826171875	-1017.125610351563	-415.0856323242189	1569.62646484375	-1109.18505859375	-396.7677307128907	1573.954956054688	-958.1618652343752	-450.8176574707032	1443.2958984375	-1028.749389648438	-467.232635498047	1127.304565429688	-1048.705932617188	-314.8744812011719	1377.310546875	-1039.694091796875	-382.1833190917969	1400.338134765625	-1196.208740234375	-238.4774322509766	1355.138427734375	-1285.100463867188	-202.9091796875001	1374.2275390625	-1254.996337890625	-173.499267578125	1350.607666015625	-1303.029174804688	-124.8606796264649	1333.030151367188	-1318.947998046875	-112.0728149414063	1272.970092773438	-1267.889770507813	125.0433731079102	1360.878051757813	-1295.53955078125	116.2964782714844	1359.837036132813	-1360.697509765625	207.3367462158204	1376.662963867188	-1306.73095703125	-359.0139465332032	1390.68896484375	-881.0054931640627	-215.8970642089844	1324.961181640625	-806.9617919921877	-186.0164642333985	1358.8955078125	-826.497741699219	-146.1289215087891	1317.1005859375	-807.295837402344	-80.33420562744142	1320.92236328125	-812.5079345703127	-80.02144622802736	1274.54736328125	-872.6754150390627	161.0004119873047	1327.50634765625	-871.9078369140627	154.7691192626953	1324.081665039063	-806.2921142578127	235.1547851562501	1347.427978515625	-863.481140136719	-287.4583435058594	950.4027099609377	-1140.900756835938	-298.9589233398438	968.1163330078127	-925.6842041015627	-463.3100891113282	1014.911743164063	-1042.455810546875	-467.0450134277345	983.9783325195315	-1067.587890625	-473.7858886718751	987.287048339844	-1011.169250488281	-355.2511901855469	784.2930297851565	-1193.11083984375	-323.3728027343751	706.5454711914064	-1183.556274414063	-274.5987854003907	712.1478881835939	-1174.785888671875	-350.2102966308594	654.9284057617189	-1164.373901367188	-336.6068420410157	497.4992065429689	-1127.09326171875	-311.7171936035157	505.0247802734376	-1010.268981933594	-311.0103759765626	360.1199951171876	-1038.2939453125	-328.3103942871094	299.6079101562501	-1100.87744140625	-302.7252807617188	306.0367431640626	-1060.970703125	-323.4616394042969	234.7146453857422	-1022.461791992188	-382.7126464843751	108.5586318969727	-1066.503295898438	-360.3679504394532	122.7515106201172	-986.4773559570315	-442.0013732910157	96.59029388427737	-1020.698852539063	-240.8920440673829	49.49521636962892	-1002.002197265625	-234.5459594726563	50.50859832763673	-1040.613037109375	-257.9731140136719	45.00420379638673	-1090.748413085938	-260.3733520507813	739.0639648437501	-850.4229736328127	-197.8575897216797	716.0565185546876	-859.874450683594	-174.099105834961	736.5159301757814	-874.3839111328127	-176.8446807861328	636.3715820312501	-870.8138427734377	-146.8685455322266	584.2534790039064	-875.5302734375002	-136.9240417480469	583.4065551757814	-992.3934326171877	-42.81952667236329	490.7427978515626	-896.964538574219	-55.20255661010744	387.885711669922	-862.7183837890627	-16.31651496887207	409.906951904297	-877.6875000000002	17.06207656860352	376.0107727050782	-910.835144042969	48.06064605712892	224.7760162353516	-870.4291992187502	49.34358215332033	244.1755981445313	-952.9495849609377	1.639868259429932	180.0057373046875	-905.934753417969	190.5069274902344	238.4307098388672	-962.6389770507815	203.5003662109376	248.1033172607422	-919.7508544921877	193.386703491211	221.4012145996094	-863.585632324219	
2	0.005	-275.0694274902344	1643.69775390625	-1017.139831542969	-415.0269470214845	1569.659423828125	-1109.174072265625	-396.828338623047	1573.87255859375	-958.202087402344	-450.8752441406251	1443.296997070313	-1028.799560546875	-467.3544311523439	1127.289916992188	-1048.826782226563	-314.9094543457032	1377.240966796875	-1039.718383789063	-382.3200683593751	1400.333618164063	-1196.241821289063	-238.5459899902344	1355.215087890625	-1285.140014648438	-202.9924468994141	1374.264038085938	-1255.028686523438	-173.6159820556641	1350.66455078125	-1303.043212890625	-124.9219589233399	1333.091674804688	-1318.9248046875	-112.1099853515625	1273.056396484375	-1267.926147460938	124.9668045043946	1361.021362304688	-1295.6162109375	116.1908035278321	1360.000122070313	-1360.736938476563	207.2076110839844	1376.838012695313	-1306.802612304688	-359.0845336914063	1390.630004882813	-881.0632324218752	-216.1007843017579	1324.556030273438	-807.2263183593752	-186.1794128417969	1358.751708984375	-826.519958496094	-146.2735137939453	1316.97607421875	-807.1336669921877	-80.8179397583008	1320.573852539063	-814.458190917969	-80.18157196044923	1274.4677734375	-872.702575683594	160.8293762207032	1327.491455078125	-871.8397216796877	154.6063232421875	1324.034912109375	-806.1695556640627	234.9959564208985	1347.206420898438	-863.657653808594	-287.4915161132813	950.4090576171877	-1140.990966796875	-299.0782470703126	968.1163330078127	-925.7513427734377	-463.3497314453126	1014.849792480469	-1042.585083007813	-467.2831420898439	983.9792480468752	-1067.746459960938	-473.9469299316407	987.224304199219	-1011.301452636719	-356.1583251953126	784.5983886718752	-1193.43115234375	-323.3493347167969	706.6425781250001	-1183.66162109375	-274.5823364257813	712.1302490234376	-1174.85107421875	-350.1953735351563	654.8846435546876	-1164.408447265625	-336.7013549804688	497.490936279297	-1127.149780273438	-311.7462158203126	505.0515136718751	-1010.3896484375	-311.0235900878907	360.1145324707032	-1038.3603515625	-328.4076843261719	299.5749511718751	-1100.931274414063	-302.7118835449219	306.0591735839844	-1061.0146484375	-323.4714965820313	234.7012176513672	-1022.531005859375	-382.7275695800782	108.5434722900391	-1066.520263671875	-360.3934326171876	122.7584381103516	-986.515319824219	-442.0253295898439	96.59061431884768	-1020.70556640625	-240.8850860595704	49.54346466064455	-1002.004089355469	-234.5448760986329	50.51158905029298	-1040.570190429688	-258.8722534179688	45.48727798461915	-1091.190795898438	-260.4603271484376	739.0599365234376	-850.5146484375002	-197.9252929687501	716.0577392578126	-859.9593505859377	-174.1311340332032	736.5942382812501	-874.4865722656252	-176.8336791992188	636.4463500976564	-870.9642333984377	-146.820556640625	584.3612670898439	-875.6348266601565	-136.8510894775391	583.5596923828126	-992.5400390625002	-42.72484588623048	490.8836669921876	-897.0748291015627	-55.0154495239258	388.0320434570314	-862.9263916015627	-16.10297012329102	410.1167297363282	-877.8338623046877	17.28326034545899	376.2231140136719	-911.0310058593752	48.42433929443361	225.0201873779297	-870.6306152343752	49.59743499755861	244.3681335449219	-953.181091308594	2.007004499435425	180.2315673828125	-906.1858520507815	190.809066772461	238.7244567871094	-962.9487915039065	203.7941436767579	248.3985137939454	-919.963562011719	193.7553863525391	221.6676025390626	-863.8199462890627	
3	0.01	-275.1260070800782	1643.684448242188	-1017.141784667969	-415.0167846679689	1569.625	-1109.255249023438	-396.9906311035157	1573.869384765625	-958.2278442382815	-450.9358825683595	1443.2666015625	-1028.84033203125	-467.424774169922	1127.282348632813	-1048.981201171875	-314.9674072265626	1377.247314453125	-1039.757934570313	-382.3495483398438	1400.324096679688	-1196.259033203125	-238.6318054199219	1355.242431640625	-1285.187133789063	-203.0593872070313	1374.306884765625	-1255.056030273438	-173.6753845214844	1350.746704101563	-1303.115844726563	-124.9341583251953	1333.196533203125	-1319.005615234375	-112.124267578125	1273.138916015625	-1267.928466796875	124.9397048950196	1361.14453125	-1295.71044921875	116.1376571655274	1360.13818359375	-1360.839721679688	207.071029663086	1377.064819335938	-1306.890380859375	-359.1536254882813	1390.549194335938	-881.099060058594	-216.1810455322266	1324.69873046875	-807.0294189453127	-186.3152160644532	1358.61328125	-826.546569824219	-146.3860473632813	1316.851806640625	-807.339782714844	-80.60509490966798	1320.699951171875	-812.3811645507815	-80.31121063232423	1274.351440429688	-872.5197753906252	160.641098022461	1327.43701171875	-871.7203369140627	154.4629364013672	1323.968627929688	-806.167907714844	234.9627227783204	1347.378295898438	-863.3023071289065	-287.5823974609376	950.4578857421877	-1141.0322265625	-299.2605895996094	968.107849121094	-925.7981567382815	-463.4730529785157	1014.816162109375	-1042.736206054688	-467.287567138672	983.9443969726565	-1067.911987304688	-474.0344238281251	987.1826782226565	-1011.516418457031	-356.1228942871094	784.530212402344	-1193.536376953125	-323.3707580566407	706.6226806640626	-1183.751342773438	-274.6277770996094	712.1403198242189	-1174.985595703125	-350.2117309570313	654.9003906250001	-1164.539794921875	-336.8012390136719	497.5215454101564	-1127.331909179688	-311.8360900878907	505.0459289550782	-1010.52490234375	-311.0545349121094	360.1134643554688	-1038.41064453125	-328.4356384277344	299.5626831054688	-1100.991455078125	-302.7542114257813	306.0660400390626	-1061.130615234375	-323.4652709960938	234.6719360351563	-1022.628662109375	-382.7356872558594	108.5582733154297	-1066.585327148438	-360.4106750488282	122.7783126831055	-986.557312011719	-441.9920349121095	96.5932312011719	-1020.713317871094	-240.9279785156251	49.55744552612306	-1002.032104492188	-234.5610656738282	50.50989532470705	-1040.625244140625	-257.9191284179688	44.97971343994141	-1090.803833007813	-260.5242614746094	739.0543212890626	-850.6303710937502	-197.9814147949219	716.0730590820314	-860.0808105468752	-174.2061157226563	736.6431274414064	-874.5854492187502	-176.7928466796875	636.5109863281251	-871.0622558593752	-146.7416381835938	584.4177246093751	-875.8249511718752	-136.7593688964844	583.6531982421876	-992.643249511719	-42.61181640625001	491.041717529297	-897.1955566406252	-54.81944274902345	388.1540832519532	-863.142028808594	-15.93598651885987	410.2738647460939	-878.0452880859377	17.49595451354981	376.4461364746094	-911.212341308594	48.74570465087892	225.222396850586	-870.874938964844	49.93418884277345	244.7134399414063	-953.4230957031252	2.311104774475098	180.4239807128907	-906.345642089844	190.9882507324219	239.0606384277344	-963.1885375976565	204.0464630126954	248.6884155273438	-920.1372070312502	194.1729736328126	221.9618682861329	-864.1158447265627	
4	0.015	-275.2237548828126	1643.658081054688	-1017.121215820313	-415.0806274414064	1569.63232421875	-1109.311767578125	-397.0555725097657	1573.816528320313	-958.3013916015627	-451.0110778808595	1443.241333007813	-1028.907104492188	-467.5784606933595	1127.26953125	-1049.082275390625	-314.9819641113282	1377.227416992188	-1039.8095703125	-382.4189758300782	1400.320068359375	-1196.352172851563	-238.6560363769532	1355.283935546875	-1285.228637695313	-203.1037902832032	1374.345458984375	-1255.085327148438	-173.6983489990235	1350.854248046875	-1303.153076171875	-125.0651092529297	1333.255737304688	-1319.031860351563	-112.1870727539063	1273.2060546875	-1267.999633789063	124.8561630249024	1361.271240234375	-1295.739379882813	116.1152038574219	1360.295532226563	-1360.899047851563	207.0090942382813	1377.264038085938	-1306.964233398438	-359.2622680664063	1390.4892578125	-881.139587402344	-216.3359069824219	1324.597290039063	-807.0401611328127	-186.4475402832032	1358.540405273438	-826.4816894531252	-146.5406341552735	1316.75732421875	-807.3193969726565	-80.7520217895508	1320.550415039063	-812.456481933594	-80.39597320556642	1274.247680664063	-872.5435791015627	160.5970001220703	1327.399780273438	-871.7546386718752	154.3359069824219	1323.94482421875	-806.104675292969	234.8683166503907	1347.295532226563	-863.2548828125002	-287.5996704101563	950.4870605468752	-1141.084838867188	-299.4080505371094	968.0996093750002	-925.8265380859377	-463.5304565429689	1014.778930664063	-1042.8095703125	-465.4638061523439	983.8084106445315	-1068.896606445313	-474.694061279297	987.452087402344	-1011.5078125	-356.1175842285157	784.5625000000002	-1193.703247070313	-323.4335021972657	706.6099243164064	-1183.855102539063	-274.6112670898438	712.1258544921876	-1175.12060546875	-350.3525390625001	654.9226074218751	-1164.646850585938	-336.8809204101563	497.5374755859376	-1127.46142578125	-311.9373168945313	505.0701599121095	-1010.5986328125	-311.0929870605469	360.0950927734376	-1038.529541015625	-328.4687805175782	299.5422058105469	-1101.096923828125	-302.8681640625001	306.0649108886719	-1061.216430664063	-323.4972229003907	234.668685913086	-1022.705322265625	-382.7569885253907	108.5219955444336	-1066.576538085938	-360.4370117187501	122.7927551269532	-986.5994262695315	-442.0052185058595	96.59174346923831	-1020.71142578125	-240.8647918701172	49.58400726318361	-1002.020629882813	-234.5283508300782	50.52059555053712	-1040.635131835938	-257.8651428222657	45.01000976562501	-1090.814819335938	-260.5916748046876	739.0377197265626	-850.7526855468752	-198.0149841308594	716.0929565429689	-860.1851806640627	-174.313720703125	736.6900634765626	-874.6399536132815	-176.7788543701172	636.5401611328126	-871.1539306640627	-146.7262420654297	584.4886474609376	-875.9182128906252	-136.6290130615235	583.7896728515626	-992.718444824219	-42.49933242797852	491.2191772460939	-897.3491210937502	-54.60124588012697	388.2879943847657	-863.3758544921877	-15.7366304397583	410.4462890625001	-878.125183105469	17.68062210083008	376.6467895507813	-911.3936767578127	49.0653648376465	225.4421844482422	-871.0615234375002	50.21496200561525	244.9178466796876	-953.610046386719	2.642238140106202	180.628158569336	-906.5091552734377	191.19091796875	239.3703155517579	-963.3691406250002	204.3916015625001	248.9969787597657	-920.4450683593752	194.550765991211	222.2612304687501	-864.4698486328127	
